<svg xmlns="http://www.w3.org/2000/svg" width="28" height="24.718" viewBox="0 0 28 24.718">
  <path id="enjoy-logo-icon" d="M-342.384-48.414h4.2a1.425,1.425,0,0,1,.228.021,1.323,1.323,0,0,1,1.075,1.53l-.219,1.25c-1.275,7.365-2.5,14.41-10.266,18.325a13.434,13.434,0,0,1-2.3.907,12.026,12.026,0,0,1-8.037-.4,11.969,11.969,0,0,1-6.051-5.774,14.78,14.78,0,0,1-.991-2.541,2.117,2.117,0,0,1,.231-1.879,1.549,1.549,0,0,1,.922-.6,1.572,1.572,0,0,1,1.027.118,2.091,2.091,0,0,1,1.093,1.544,6.717,6.717,0,0,0,1.242,2.759,7.859,7.859,0,0,0,3.238,2.519,7.171,7.171,0,0,0,4.111.465,7.15,7.15,0,0,0,2.957-1.331c3.944-2.948,4.7-7.337,5.47-11.822.105-.613.211-1.227.325-1.842h-4.452a1.341,1.341,0,0,1-.258-.026,1.323,1.323,0,0,1-1.039-1.556l.113-.567a1.324,1.324,0,0,1,1.3-1.1Zm-19.564,4.941a3.412,3.412,0,0,0,2.556,1.074,4.428,4.428,0,0,0,3.166-1.361,4.588,4.588,0,0,0,1.312-3.2,3.715,3.715,0,0,0-.944-2.585,3.367,3.367,0,0,0-2.536-1.054,4.52,4.52,0,0,0-3.187,1.336c-.027.027-.053.056-.077.085a4.486,4.486,0,0,0-1.254,3.1A3.755,3.755,0,0,0-361.948-43.473Z" transform="translate(364.86 50.596)" fill="#c3001b" fill-rule="evenodd"/>
</svg>
