<svg id="_001-search" data-name="001-search" xmlns="http://www.w3.org/2000/svg" width="40" height="40" viewBox="0 0 40 40">
  <path id="Caminho_177" data-name="Caminho 177" d="M8.865,151.638l-1.392,5.2-5.089.108a20.035,20.035,0,0,1-.147-18.676h0l4.531.831,1.985,4.5a11.936,11.936,0,0,0,.112,8.036Z" transform="translate(0 -127.466)" fill="#fbbb00"/>
  <path id="Caminho_178" data-name="Caminho 178" d="M280.839,208.176a19.992,19.992,0,0,1-7.13,19.333h0L268,227.217l-.808-5.042a11.919,11.919,0,0,0,5.129-6.087H261.628v-7.912h19.211Z" transform="translate(-241.188 -191.912)" fill="#518ef8"/>
  <path id="Caminho_179" data-name="Caminho 179" d="M60.645,320.832h0a20.006,20.006,0,0,1-30.137-6.119l6.481-5.305a11.895,11.895,0,0,0,17.141,6.09Z" transform="translate(-28.125 -285.236)" fill="#28b446"/>
  <path id="Caminho_180" data-name="Caminho 180" d="M59.154,4.6l-6.479,5.3A11.893,11.893,0,0,0,35.14,16.136L28.625,10.8h0a20,20,0,0,1,30.53-6.2Z" transform="translate(-26.388)" fill="#f14336"/>
</svg>
