<svg id="head-bar" xmlns="http://www.w3.org/2000/svg" width="521.123" height="88" viewBox="0 0 521.123 88">
  <g id="logo-enjoy">
    <path id="Caminho_3" data-name="Caminho 3" d="M509.624,728.515l4.365-24.635h-3.362a3.167,3.167,0,0,1-.547-.057,2.8,2.8,0,0,1-2.2-3.294l.227-1.126a2.8,2.8,0,0,1,2.758-2.327h4.293l1-5.548a2.8,2.8,0,0,1,1.917-2.287l8.748-2.812a2.8,2.8,0,0,1,3.8,3.082l-1.334,7.565h9.266v.008a2.7,2.7,0,0,1,.712.093,2.8,2.8,0,0,1,1.992,3.416l-.269,1.014a2.809,2.809,0,0,1-2.755,2.272H528.053l-4.934,27.835h-.006l0,.032a4.8,4.8,0,0,0-.064,1.866,1.009,1.009,0,0,0,.506.708,4.484,4.484,0,0,0,2.266.281,18.138,18.138,0,0,0,6.013-1.741,2.9,2.9,0,0,1,.611-.255,2.8,2.8,0,0,1,3.455,1.927l.162.557,0,0a2.8,2.8,0,0,1-.874,2.888,25.859,25.859,0,0,1-7.044,4.232,20.868,20.868,0,0,1-7.616,1.632,15.212,15.212,0,0,1-2.751-.248,9.974,9.974,0,0,1-6.268-3.617,11.747,11.747,0,0,1-2.272-7.443,22.282,22.282,0,0,1,.37-3.844Z" transform="translate(-262.92 -672.507)" fill="#fff" fill-rule="evenodd"/>
    <path id="Caminho_4" data-name="Caminho 4" d="M537.9,706.409l-7.083,40.108a2.8,2.8,0,0,1-2.776,2.424h-8.374a3.7,3.7,0,0,1-.482-.043,2.8,2.8,0,0,1-2.276-3.243l7.08-40.1a2.8,2.8,0,0,1,2.776-2.424h8.378a3.217,3.217,0,0,1,.482.047,2.8,2.8,0,0,1,2.276,3.236Zm-10.69-8.011a7.649,7.649,0,0,1-1.971-5.311,9.13,9.13,0,0,1,2.539-6.285,1.992,1.992,0,0,1,.169-.183,9.177,9.177,0,0,1,6.476-2.719,7.013,7.013,0,0,1,5.21,2.147,7.532,7.532,0,0,1,1.981,5.286,9.261,9.261,0,0,1-2.708,6.494,9.14,9.14,0,0,1-6.476,2.769A6.966,6.966,0,0,1,527.205,698.4Z" transform="translate(-239.466 -678.556)" fill="#fff" fill-rule="evenodd"/>
    <path id="Caminho_5" data-name="Caminho 5" d="M528.007,731.425c-3.15-3.322-4.926-8.083-4.926-14.193a28.285,28.285,0,0,1,2.143-11.075,27.061,27.061,0,0,1,6.393-9.141A28.536,28.536,0,0,1,540.689,691a27.647,27.647,0,0,1,10.565-2.025,34.917,34.917,0,0,1,6.375.576,30.554,30.554,0,0,1,5.782,1.651,2.8,2.8,0,0,1,1.892,2.65v3.273H565.3a2.8,2.8,0,0,1-4.721,2.024,13.4,13.4,0,0,0-3.984-2.679,10.942,10.942,0,0,0-4.3-.852,9.291,9.291,0,0,0-4.9,1.4,16.442,16.442,0,0,0-4.7,4.664l0,0-.018.025a23.681,23.681,0,0,0-3.531,7.3,32.313,32.313,0,0,0-1.2,9.1q0,5.3,1.927,7.681,1.721,2.119,5.484,2.121a16.357,16.357,0,0,0,5.088-.834,23.169,23.169,0,0,0,5.358-2.614,2.789,2.789,0,0,1,3.84.788l.266.4a2.8,2.8,0,0,1-.331,3.65,27.574,27.574,0,0,1-8.389,5.4,25.165,25.165,0,0,1-9.5,2.01C536.018,736.708,531.312,734.917,528.007,731.425Z" transform="translate(-223.32 -665.367)" fill="#fff" fill-rule="evenodd"/>
    <path id="Caminho_6" data-name="Caminho 6" d="M550.9,736.055l-2.524,14.315A2.8,2.8,0,0,1,545.6,752.8h-8.374a3.628,3.628,0,0,1-.482-.044,2.8,2.8,0,0,1-2.276-3.243L545.394,687.6h.007a2.786,2.786,0,0,1,1.9-2.179l8.662-2.808a2.769,2.769,0,0,1,1.529-.162,2.8,2.8,0,0,1,2.276,3.239l-7.015,39.81L573.2,707.813a2.815,2.815,0,0,1,1.992-.83h1.917v.011a2.792,2.792,0,0,1,1.827,4.9l-14.394,12.4L578,748.435a2.8,2.8,0,0,1-2.33,4.362h-9.493v0a2.813,2.813,0,0,1-2.453-1.453L553.9,733.462Z" transform="translate(-193.875 -682.413)" fill="#fff" fill-rule="evenodd"/>
    <path id="Caminho_7" data-name="Caminho 7" d="M551.5,731.451c-3.068-3.3-4.782-8.066-4.782-14.3a29.094,29.094,0,0,1,2.341-11.42,26.615,26.615,0,0,1,6.487-9.256l.1-.1a31.731,31.731,0,0,1,8.551-5.427,23.722,23.722,0,0,1,9.173-1.974,18.667,18.667,0,0,1,8.217,1.672,12.909,12.909,0,0,1,5.574,5.128,2.7,2.7,0,0,1,.15.241,15.55,15.55,0,0,1,1.834,7.922,28.873,28.873,0,0,1-1.809,9.033,2.807,2.807,0,0,1-2.719,2.114H561.7a28.4,28.4,0,0,0-.109,5.437,9.672,9.672,0,0,0,1.273,4.427,6.4,6.4,0,0,0,2.384,2.219,7.377,7.377,0,0,0,3.42.741,17.888,17.888,0,0,0,5.412-.849,22.52,22.52,0,0,0,5.433-2.6,2.788,2.788,0,0,1,3.84.788l.32.478a2.79,2.79,0,0,1-.482,3.657,31,31,0,0,1-8.648,5.459,24.93,24.93,0,0,1-9.464,1.863c-5.649,0-10.313-1.74-13.578-5.257Zm12.908-27.037a32.823,32.823,0,0,0-1.359,3.873h11.273a39.683,39.683,0,0,0,.957-7.8,9.543,9.543,0,0,0-.644-3.991,1.359,1.359,0,0,0-.863-.824,2.1,2.1,0,0,0-.478-.05,4.961,4.961,0,0,0-2.535.795,13.97,13.97,0,0,0-3.254,2.852l-.054.064A19.768,19.768,0,0,0,564.411,704.413Z" transform="translate(-161.955 -665.367)" fill="#fff" fill-rule="evenodd"/>
    <path id="Caminho_8" data-name="Caminho 8" d="M560.887,728.515l4.361-24.635H561.89a3.158,3.158,0,0,1-.546-.057,2.8,2.8,0,0,1-2.2-3.294l.223-1.126a2.805,2.805,0,0,1,2.762-2.327h4.289l1-5.548a2.8,2.8,0,0,1,1.917-2.287l8.749-2.812a2.8,2.8,0,0,1,3.8,3.082l-1.334,7.565h9.267v.008a2.718,2.718,0,0,1,.712.093,2.8,2.8,0,0,1,1.992,3.416l-.27,1.014a2.809,2.809,0,0,1-2.754,2.272H579.315l-4.934,27.835h-.007l0,.032a4.8,4.8,0,0,0-.065,1.866,1,1,0,0,0,.507.708,4.476,4.476,0,0,0,2.266.281,18.133,18.133,0,0,0,6.012-1.741,2.96,2.96,0,0,1,.608-.255,2.8,2.8,0,0,1,3.459,1.927l.162.557,0,0a2.8,2.8,0,0,1-.873,2.888,25.847,25.847,0,0,1-7.044,4.232,20.865,20.865,0,0,1-7.616,1.632,15.21,15.21,0,0,1-2.75-.248,9.992,9.992,0,0,1-6.271-3.617,11.768,11.768,0,0,1-2.269-7.443,21.935,21.935,0,0,1,.37-3.844Z" transform="translate(-129.853 -672.507)" fill="#fff" fill-rule="evenodd"/>
    <path id="Caminho_9" data-name="Caminho 9" d="M575.585,736.128a31.494,31.494,0,0,1-5.89-1.657,2.8,2.8,0,0,1-1.866-2.639v-3.272h.014a2.787,2.787,0,0,1,4.7-2.024,12.049,12.049,0,0,0,4.135,2.564,15.325,15.325,0,0,0,5.358.887,10.17,10.17,0,0,0,6.156-1.812,4.692,4.692,0,0,0,1.971-3.765c0-2.467-3.248-4.107-6.7-5.847-5.563-2.8-11.492-5.8-11.492-13.617a14.6,14.6,0,0,1,1.56-6.753A14.369,14.369,0,0,1,578.116,693l0,.007A21.468,21.468,0,0,1,584.229,690a23.74,23.74,0,0,1,6.983-1.018,29.235,29.235,0,0,1,5.825.587A28.429,28.429,0,0,1,602.4,691.2a2.8,2.8,0,0,1,1.9,2.654v3.273H604.3a2.794,2.794,0,0,1-4.743,2,12.1,12.1,0,0,0-3.847-2.582,11.978,11.978,0,0,0-4.574-.849,8.092,8.092,0,0,0-5.128,1.547,4.278,4.278,0,0,0-1.643,3.391c0,2.434,3.366,4.063,6.94,5.789,5.749,2.777,11.887,5.743,11.887,13.6a14.514,14.514,0,0,1-1.7,6.994,15.374,15.374,0,0,1-4.782,5.246l-.151.111a23.419,23.419,0,0,1-6.8,3.255,27.382,27.382,0,0,1-7.8,1.079A35.368,35.368,0,0,1,575.585,736.128Z" transform="translate(-107.163 -665.367)" fill="#fff" fill-rule="evenodd"/>
    <path id="Caminho_10" data-name="Caminho 10" d="M584.861,690.447l-1.511,8.54a.427.427,0,0,1-.421.367h-1.51l-.076-.008a.418.418,0,0,1-.341-.489l1.474-8.411h-2.571a.392.392,0,0,1-.108-.014.426.426,0,0,1-.3-.518l.047-.169a.427.427,0,0,1,.413-.338h7.663l.083.011a.422.422,0,0,1,.335.5l-.04.183a.425.425,0,0,1-.417.349Zm4.879,2.248,1.014,6.3a.429.429,0,0,0,.417.357h.82a.426.426,0,0,0,.388-.26l3.157-6.235-.316,6.048a.419.419,0,0,0,.4.443l1.511,0a.423.423,0,0,0,.421-.425l.486-9.076a.42.42,0,0,0-.4-.442l-1.266,0a.427.427,0,0,0-.388.259l-3.308,6.526-1.025-6.426a.428.428,0,0,0-.417-.359h-1.281a.423.423,0,0,0-.41.327l-2.711,9.072a.425.425,0,0,0,.283.529.5.5,0,0,0,.123.018h.215a.422.422,0,0,0,.413-.335Z" transform="translate(-76.913 -664.256)" fill="#fff" fill-rule="evenodd"/>
    <path id="Caminho_11" data-name="Caminho 11" d="M444.485,731.435c-3.057-3.294-4.768-8.048-4.768-14.276a29.127,29.127,0,0,1,2.341-11.424,26.629,26.629,0,0,1,6.491-9.256l.1-.093a31.731,31.731,0,0,1,8.558-5.43,23.7,23.7,0,0,1,9.166-1.974,18.608,18.608,0,0,1,8.2,1.665,12.828,12.828,0,0,1,5.548,5.106c.05.072.094.147.14.226a15.5,15.5,0,0,1,1.823,7.89,28.819,28.819,0,0,1-1.816,9.047,2.655,2.655,0,0,1-2.575,2H454.478a28.718,28.718,0,0,0-.126,5.649,9.9,9.9,0,0,0,1.305,4.531,6.614,6.614,0,0,0,2.338,2.226l.122.058a7.515,7.515,0,0,0,3.517.766,18.209,18.209,0,0,0,5.494-.859,22.841,22.841,0,0,0,5.415-2.578l.068-.047a2.648,2.648,0,0,1,3.671.745l.324.481,0,0a2.653,2.653,0,0,1-.464,3.452,31.049,31.049,0,0,1-8.655,5.462,24.92,24.92,0,0,1-9.46,1.863c-5.635,0-10.284-1.733-13.538-5.235ZM457.2,704.282a33.728,33.728,0,0,0-1.435,4.124h11.69a40.121,40.121,0,0,0,1-8.011,9.734,9.734,0,0,0-.665-4.088,1.531,1.531,0,0,0-.978-.917,2.236,2.236,0,0,0-.518-.054,5.193,5.193,0,0,0-2.636.82,14.37,14.37,0,0,0-3.319,2.909l-.05.061A20.016,20.016,0,0,0,457.2,704.282Z" transform="translate(-439.717 -665.362)" fill="#fff" fill-rule="evenodd"/>
    <path id="Caminho_12" data-name="Caminho 12" d="M470.736,701.013,465,733.408a2.657,2.657,0,0,1-2.632,2.3h-8.425a2.779,2.779,0,0,1-.457-.043,2.65,2.65,0,0,1-2.158-3.067l7.123-40.352a2.657,2.657,0,0,1,2.632-2.3h8.429v.011a3.015,3.015,0,0,1,.468.039,2.652,2.652,0,0,1,2.15,2.223q1.128-.654,2.294-1.187a21.832,21.832,0,0,1,8.892-2.049,17.086,17.086,0,0,1,3.114.28,11.755,11.755,0,0,1,7.278,4.168,13.134,13.134,0,0,1,2.636,8.357,21.76,21.76,0,0,1-.36,3.783l-.022.169-4.879,27.67a2.655,2.655,0,0,1-2.632,2.3h-8.425a2.817,2.817,0,0,1-.457-.043,2.65,2.65,0,0,1-2.158-3.067l5.218-29.619.007,0,0-.021c.392-2.118.323-3.586-.208-4.391a1.5,1.5,0,0,0-.486-.46,3.005,3.005,0,0,0-1-.352,7.033,7.033,0,0,0-1.24-.094,12.47,12.47,0,0,0-4.631.939A20.973,20.973,0,0,0,470.736,701.013Z" transform="translate(-409.676 -665.362)" fill="#fff" fill-rule="evenodd"/>
    <path id="Caminho_13" data-name="Caminho 13" d="M509.994,689.25h8.425a2.9,2.9,0,0,1,.457.039,2.656,2.656,0,0,1,2.157,3.071l-.439,2.51c-2.56,14.772-5.005,28.9-20.593,36.757a26.774,26.774,0,0,1-4.62,1.819,23.616,23.616,0,0,1-28.264-12.388,29.779,29.779,0,0,1-1.988-5.095,4.257,4.257,0,0,1,.464-3.769,3.1,3.1,0,0,1,1.852-1.2,3.15,3.15,0,0,1,2.06.233,4.2,4.2,0,0,1,2.193,3.1,13.468,13.468,0,0,0,2.492,5.534,15.75,15.75,0,0,0,6.494,5.052,13.984,13.984,0,0,0,14.178-1.737c7.911-5.911,9.425-14.717,10.971-23.714.212-1.23.424-2.463.651-3.7h-8.928a2.563,2.563,0,0,1-.521-.05,2.654,2.654,0,0,1-2.082-3.121l.227-1.137a2.658,2.658,0,0,1,2.618-2.2Z" transform="translate(-374.335 -664.666)" fill="#fff" fill-rule="evenodd"/>
    <path id="Caminho_14" data-name="Caminho 14" d="M485.7,731.409c-3.24-3.29-5.121-8-5.121-14.009a29.37,29.37,0,0,1,1.064-7.94,27.5,27.5,0,0,1,3.2-7.195,30.119,30.119,0,0,1,4.635-5.8,25.471,25.471,0,0,1,5.75-4.2l0,.007a26.971,26.971,0,0,1,6.246-2.471,26.431,26.431,0,0,1,6.551-.816c5.656,0,10.511,1.79,13.948,5.26,3.258,3.29,5.16,8,5.16,14.01a29.239,29.239,0,0,1-2.133,11.309,26.352,26.352,0,0,1-6.411,9.158,30.248,30.248,0,0,1-8.925,5.926,25.686,25.686,0,0,1-10.068,2.024c-5.649,0-10.486-1.794-13.905-5.261Zm10.482-20.762a39.962,39.962,0,0,0-1.144,9.8q0,9.865,4.567,9.867a6.7,6.7,0,0,0,4.121-1.546,19.194,19.194,0,0,0,4.513-5.494A31.463,31.463,0,0,0,511.558,715a40.494,40.494,0,0,0,1.122-9.8c0-6.573-1.532-9.863-4.65-9.863A6.533,6.533,0,0,0,504,696.871a18.674,18.674,0,0,0-4.394,5.415l-.05.09A30.8,30.8,0,0,0,496.179,710.646Z" transform="translate(-333.652 -665.362)" fill="#fff" fill-rule="evenodd"/>
    <path id="Caminho_15" data-name="Caminho 15" d="M537.033,693.285l-35.376,57.943a2.654,2.654,0,0,1-2.359,1.438h-1.445v-.011a2.64,2.64,0,0,1-2.251-4.031l9.2-14.937-10.492-40.881a2.654,2.654,0,0,1,2.5-3.557H505.4a2.653,2.653,0,0,1,2.571,2l6.71,26.307,16.257-26.807a2.656,2.656,0,0,1,2.391-1.5h1.446v.008a2.615,2.615,0,0,1,1.38.388A2.646,2.646,0,0,1,537.033,693.285Z" transform="translate(-298.412 -664.666)" fill="#fff" fill-rule="evenodd"/>
    <path id="Caminho_16" data-name="Caminho 16" d="M467.923,702.319a7.519,7.519,0,0,1-1.931-5.225,9,9,0,0,1,2.514-6.214c.05-.057.1-.115.155-.168a9.078,9.078,0,0,1,6.393-2.679,6.763,6.763,0,0,1,5.088,2.114,7.45,7.45,0,0,1,1.891,5.185,9.2,9.2,0,0,1-2.628,6.415,8.9,8.9,0,0,1-6.354,2.729A6.84,6.84,0,0,1,467.923,702.319Z" transform="translate(-371.512 -667.825)" fill="#fff" fill-rule="evenodd"/>
  </g>
</svg>
