<svg id="Layer_2" data-name="Layer 2" xmlns="http://www.w3.org/2000/svg" width="24" height="24" viewBox="0 0 24 24">
  <g id="funnel">
    <rect id="Retângulo_122" data-name="Retângulo 122" width="24" height="24" fill="#fff" opacity="0"/>
    <path id="Caminho_167" data-name="Caminho 167" d="M13.9,22a1,1,0,0,1-.6-.2l-4-3.05a1,1,0,0,1-.39-.8V14.68L4.11,5.46A1,1,0,0,1,5,4H19a.99.99,0,0,1,.86,1.49l-5,9.21V21a.983.983,0,0,1-.96,1Zm-3-4.54,2,1.53V14.44A1,1,0,0,1,13,14l4.3-8H6.64l4.13,8a1,1,0,0,1,.11.46Z" transform="translate(0)" fill="#fff"/>
  </g>
</svg>
