<svg id="logo-enjoy" xmlns="http://www.w3.org/2000/svg" width="274.171" height="46.298" viewBox="0 0 274.171 46.298">
  <path id="Caminho_3" data-name="Caminho 3" d="M508.772,708.477l2.3-12.961H509.3a1.687,1.687,0,0,1-.288-.03,1.474,1.474,0,0,1-1.158-1.733l.119-.592a1.472,1.472,0,0,1,1.451-1.224h2.259l.524-2.919a1.473,1.473,0,0,1,1.008-1.2l4.6-1.479a1.473,1.473,0,0,1,2,1.621l-.7,3.98h4.875v0a1.418,1.418,0,0,1,.375.049,1.472,1.472,0,0,1,1.048,1.8l-.142.534a1.478,1.478,0,0,1-1.449,1.2h-5.354l-2.6,14.645h0l0,.017a2.527,2.527,0,0,0-.034.982.531.531,0,0,0,.267.373,2.357,2.357,0,0,0,1.192.147,9.542,9.542,0,0,0,3.163-.916,1.523,1.523,0,0,1,.321-.134,1.473,1.473,0,0,1,1.818,1.014l.085.293,0,0a1.473,1.473,0,0,1-.46,1.519,13.606,13.606,0,0,1-3.706,2.227,10.981,10.981,0,0,1-4.007.859,8,8,0,0,1-1.447-.131,5.249,5.249,0,0,1-3.3-1.9,6.181,6.181,0,0,1-1.2-3.916,11.725,11.725,0,0,1,.195-2.022Z" transform="translate(-378.977 -679.01)" fill="#c3001b" fill-rule="evenodd"/>
  <path id="Caminho_4" data-name="Caminho 4" d="M527.928,695.742l-3.727,21.1a1.474,1.474,0,0,1-1.461,1.275h-4.406a1.874,1.874,0,0,1-.254-.023,1.474,1.474,0,0,1-1.2-1.706l3.725-21.1a1.475,1.475,0,0,1,1.46-1.275h4.408a1.721,1.721,0,0,1,.253.025,1.472,1.472,0,0,1,1.2,1.7Zm-5.624-4.215a4.024,4.024,0,0,1-1.037-2.795,4.8,4.8,0,0,1,1.335-3.307,1.1,1.1,0,0,1,.089-.1,4.829,4.829,0,0,1,3.407-1.43,3.69,3.69,0,0,1,2.741,1.129,3.963,3.963,0,0,1,1.042,2.781,4.87,4.87,0,0,1-1.425,3.416,4.808,4.808,0,0,1-3.407,1.457A3.666,3.666,0,0,1,522.3,691.527Z" transform="translate(-370.919 -681.088)" fill="#c3001b" fill-rule="evenodd"/>
  <path id="Caminho_5" data-name="Caminho 5" d="M525.673,711.311a10.5,10.5,0,0,1-2.592-7.467,14.88,14.88,0,0,1,1.128-5.827,14.238,14.238,0,0,1,3.364-4.809,15.013,15.013,0,0,1,4.773-3.163,14.544,14.544,0,0,1,5.558-1.065,18.37,18.37,0,0,1,3.354.3,16.076,16.076,0,0,1,3.042.868,1.474,1.474,0,0,1,1,1.394v1.722h0a1.471,1.471,0,0,1-2.484,1.065,7.052,7.052,0,0,0-2.1-1.409,5.757,5.757,0,0,0-2.263-.448,4.888,4.888,0,0,0-2.579.738,8.653,8.653,0,0,0-2.473,2.454l0,0-.01.013a12.458,12.458,0,0,0-1.858,3.838,17,17,0,0,0-.63,4.79,6.439,6.439,0,0,0,1.014,4.041,3.5,3.5,0,0,0,2.885,1.116,8.609,8.609,0,0,0,2.677-.439,12.19,12.19,0,0,0,2.819-1.375,1.467,1.467,0,0,1,2.02.415l.14.208a1.471,1.471,0,0,1-.174,1.92,14.505,14.505,0,0,1-4.414,2.841,13.237,13.237,0,0,1-5,1.057A9.561,9.561,0,0,1,525.673,711.311Z" transform="translate(-365.372 -676.557)" fill="#c3001b" fill-rule="evenodd"/>
  <path id="Caminho_6" data-name="Caminho 6" d="M543.092,710.635l-1.328,7.531a1.474,1.474,0,0,1-1.461,1.277H535.9a1.871,1.871,0,0,1-.253-.023,1.475,1.475,0,0,1-1.2-1.706l5.749-32.57h0a1.466,1.466,0,0,1,1-1.146l4.557-1.477a1.472,1.472,0,0,1,2,1.619l-3.691,20.944,10.76-9.308a1.481,1.481,0,0,1,1.048-.437h1.008v.006a1.469,1.469,0,0,1,.961,2.58l-7.573,6.523,7.081,12.7a1.474,1.474,0,0,1-1.226,2.3h-4.994v0a1.48,1.48,0,0,1-1.29-.764l-5.168-9.406Z" transform="translate(-355.256 -682.413)" fill="#c3001b" fill-rule="evenodd"/>
  <path id="Caminho_7" data-name="Caminho 7" d="M549.237,711.325a10.688,10.688,0,0,1-2.516-7.522,15.307,15.307,0,0,1,1.231-6.008,14,14,0,0,1,3.413-4.87l.055-.051a16.7,16.7,0,0,1,4.5-2.855,12.481,12.481,0,0,1,4.826-1.039,9.822,9.822,0,0,1,4.323.88,6.789,6.789,0,0,1,2.932,2.7,1.415,1.415,0,0,1,.079.126,8.183,8.183,0,0,1,.965,4.168,15.189,15.189,0,0,1-.952,4.752,1.476,1.476,0,0,1-1.43,1.112H554.6a14.925,14.925,0,0,0-.057,2.86,5.088,5.088,0,0,0,.67,2.329,3.365,3.365,0,0,0,1.254,1.167,3.881,3.881,0,0,0,1.8.39,9.41,9.41,0,0,0,2.847-.446,11.845,11.845,0,0,0,2.859-1.368,1.467,1.467,0,0,1,2.02.415l.169.252a1.468,1.468,0,0,1-.253,1.924,16.311,16.311,0,0,1-4.55,2.872,13.116,13.116,0,0,1-4.979.98,9.368,9.368,0,0,1-7.143-2.766Zm6.791-14.225a17.221,17.221,0,0,0-.715,2.038h5.931a20.873,20.873,0,0,0,.5-4.1,5.02,5.02,0,0,0-.339-2.1.715.715,0,0,0-.454-.433,1.093,1.093,0,0,0-.252-.026,2.61,2.61,0,0,0-1.334.418,7.349,7.349,0,0,0-1.712,1.5l-.028.034A10.39,10.39,0,0,0,556.028,697.1Z" transform="translate(-344.29 -676.557)" fill="#c3001b" fill-rule="evenodd"/>
  <path id="Caminho_8" data-name="Caminho 8" d="M560.034,708.477l2.295-12.961h-1.767a1.682,1.682,0,0,1-.287-.03,1.474,1.474,0,0,1-1.158-1.733l.118-.592a1.476,1.476,0,0,1,1.453-1.224h2.257l.526-2.919a1.473,1.473,0,0,1,1.009-1.2l4.6-1.479a1.473,1.473,0,0,1,2,1.621l-.7,3.98h4.875v0a1.428,1.428,0,0,1,.375.049,1.471,1.471,0,0,1,1.048,1.8l-.142.534a1.478,1.478,0,0,1-1.449,1.2H569.73l-2.6,14.645h0l0,.017a2.533,2.533,0,0,0-.034.982.526.526,0,0,0,.267.373,2.352,2.352,0,0,0,1.192.147,9.54,9.54,0,0,0,3.163-.916,1.551,1.551,0,0,1,.32-.134,1.475,1.475,0,0,1,1.82,1.014l.085.293,0,0a1.472,1.472,0,0,1-.46,1.519,13.6,13.6,0,0,1-3.706,2.227,10.979,10.979,0,0,1-4.007.859,8,8,0,0,1-1.447-.131,5.258,5.258,0,0,1-3.3-1.9,6.191,6.191,0,0,1-1.194-3.916,11.545,11.545,0,0,1,.195-2.022Z" transform="translate(-333.261 -679.01)" fill="#c3001b" fill-rule="evenodd"/>
  <path id="Caminho_9" data-name="Caminho 9" d="M571.91,713.786a16.578,16.578,0,0,1-3.1-.872,1.472,1.472,0,0,1-.982-1.389V709.8h.008a1.466,1.466,0,0,1,2.474-1.065,6.338,6.338,0,0,0,2.176,1.349,8.062,8.062,0,0,0,2.819.467,5.351,5.351,0,0,0,3.239-.953,2.468,2.468,0,0,0,1.037-1.981c0-1.3-1.709-2.161-3.523-3.076-2.927-1.475-6.046-3.05-6.046-7.164a7.68,7.68,0,0,1,.821-3.553,7.559,7.559,0,0,1,2.408-2.73l0,0a11.291,11.291,0,0,1,3.214-1.585,12.489,12.489,0,0,1,3.674-.535,15.38,15.38,0,0,1,3.064.308,14.977,14.977,0,0,1,2.823.861,1.472,1.472,0,0,1,1,1.4v1.722h0a1.47,1.47,0,0,1-2.5,1.054,6.035,6.035,0,0,0-4.43-1.8,4.256,4.256,0,0,0-2.7.814,2.251,2.251,0,0,0-.864,1.784c0,1.281,1.771,2.138,3.651,3.046,3.025,1.461,6.254,3.021,6.254,7.153a7.635,7.635,0,0,1-.893,3.68,8.089,8.089,0,0,1-2.516,2.76l-.08.058a12.32,12.32,0,0,1-3.579,1.712,14.406,14.406,0,0,1-4.1.567A18.617,18.617,0,0,1,571.91,713.786Z" transform="translate(-325.466 -676.557)" fill="#c3001b" fill-rule="evenodd"/>
  <path id="Caminho_10" data-name="Caminho 10" d="M582.312,689.955l-.795,4.493a.225.225,0,0,1-.221.193H580.5l-.04,0a.22.22,0,0,1-.18-.257l.776-4.425H579.7a.211.211,0,0,1-.057-.007.224.224,0,0,1-.159-.273l.024-.089a.225.225,0,0,1,.218-.178h4.031l.044.006a.222.222,0,0,1,.176.261l-.021.1a.224.224,0,0,1-.22.184Zm2.567,1.182.533,3.316a.226.226,0,0,0,.219.188h.432a.225.225,0,0,0,.2-.136l1.661-3.28-.166,3.182a.22.22,0,0,0,.209.233l.795,0a.222.222,0,0,0,.221-.223l.255-4.775a.221.221,0,0,0-.21-.233l-.666,0a.225.225,0,0,0-.2.136l-1.74,3.434-.539-3.381a.225.225,0,0,0-.219-.189h-.674a.223.223,0,0,0-.216.172l-1.426,4.773a.223.223,0,0,0,.149.278.256.256,0,0,0,.065.01h.113a.222.222,0,0,0,.218-.176Z" transform="translate(-315.073 -676.175)" fill="#c3001b" fill-rule="evenodd"/>
  <path id="Caminho_11" data-name="Caminho 11" d="M442.225,711.317a10.675,10.675,0,0,1-2.509-7.511,15.321,15.321,0,0,1,1.232-6.01,14.009,14.009,0,0,1,3.415-4.87l.051-.049a16.7,16.7,0,0,1,4.5-2.857,12.472,12.472,0,0,1,4.822-1.038,9.79,9.79,0,0,1,4.311.876,6.751,6.751,0,0,1,2.919,2.686c.027.038.049.078.074.119a8.154,8.154,0,0,1,.959,4.151,15.153,15.153,0,0,1-.955,4.76,1.4,1.4,0,0,1-1.355,1.054h-12.21a15.123,15.123,0,0,0-.066,2.972,5.208,5.208,0,0,0,.687,2.384,3.481,3.481,0,0,0,1.23,1.171l.064.03a3.955,3.955,0,0,0,1.85.4,9.579,9.579,0,0,0,2.891-.452,12.016,12.016,0,0,0,2.849-1.356l.036-.025a1.393,1.393,0,0,1,1.932.392l.17.253,0,0a1.4,1.4,0,0,1-.244,1.816,16.333,16.333,0,0,1-4.554,2.874,13.11,13.11,0,0,1-4.977.98,9.345,9.345,0,0,1-7.123-2.754Zm6.69-14.285a17.743,17.743,0,0,0-.755,2.17h6.15a21.109,21.109,0,0,0,.524-4.215,5.122,5.122,0,0,0-.35-2.151.806.806,0,0,0-.515-.483,1.18,1.18,0,0,0-.272-.028,2.73,2.73,0,0,0-1.387.432,7.555,7.555,0,0,0-1.746,1.53l-.027.032A10.528,10.528,0,0,0,448.915,697.032Z" transform="translate(-439.717 -676.555)" fill="#c3001b" fill-rule="evenodd"/>
  <path id="Caminho_12" data-name="Caminho 12" d="M461.521,695.312,458.5,712.355a1.4,1.4,0,0,1-1.385,1.209h-4.432a1.466,1.466,0,0,1-.24-.022,1.394,1.394,0,0,1-1.135-1.614l3.748-21.23a1.4,1.4,0,0,1,1.385-1.209h4.435v.006a1.562,1.562,0,0,1,.246.021,1.4,1.4,0,0,1,1.131,1.169q.593-.344,1.207-.625a11.484,11.484,0,0,1,4.678-1.078,8.995,8.995,0,0,1,1.638.147,6.185,6.185,0,0,1,3.829,2.193,6.909,6.909,0,0,1,1.387,4.4,11.448,11.448,0,0,1-.189,1.99l-.011.089-2.567,14.557a1.4,1.4,0,0,1-1.385,1.209h-4.433a1.488,1.488,0,0,1-.24-.022,1.394,1.394,0,0,1-1.135-1.614l2.745-15.583,0,0,0-.011a3.386,3.386,0,0,0-.11-2.31.788.788,0,0,0-.255-.242,1.579,1.579,0,0,0-.528-.186,3.719,3.719,0,0,0-.653-.049,6.562,6.562,0,0,0-2.437.494A11.049,11.049,0,0,0,461.521,695.312Z" transform="translate(-429.396 -676.555)" fill="#c3001b" fill-rule="evenodd"/>
  <path id="Caminho_13" data-name="Caminho 13" d="M488.627,689.25h4.432a1.528,1.528,0,0,1,.24.021,1.4,1.4,0,0,1,1.135,1.616l-.231,1.32c-1.347,7.772-2.633,15.206-10.834,19.338a14.073,14.073,0,0,1-2.431.957,12.425,12.425,0,0,1-14.87-6.517,15.648,15.648,0,0,1-1.046-2.681,2.238,2.238,0,0,1,.244-1.983,1.628,1.628,0,0,1,.974-.633,1.655,1.655,0,0,1,1.084.123,2.21,2.21,0,0,1,1.154,1.631,7.088,7.088,0,0,0,1.311,2.911,8.287,8.287,0,0,0,3.417,2.658,7.357,7.357,0,0,0,7.459-.914c4.162-3.11,4.958-7.743,5.772-12.476.112-.647.223-1.3.342-1.945h-4.7a1.351,1.351,0,0,1-.274-.026,1.4,1.4,0,0,1-1.1-1.642l.119-.6a1.4,1.4,0,0,1,1.377-1.16Z" transform="translate(-417.255 -676.316)" fill="#c3001b" fill-rule="evenodd"/>
  <path id="Caminho_14" data-name="Caminho 14" d="M483.271,711.3a10.154,10.154,0,0,1-2.694-7.37,15.452,15.452,0,0,1,.56-4.177,14.467,14.467,0,0,1,1.686-3.785,15.847,15.847,0,0,1,2.438-3.053,13.405,13.405,0,0,1,3.025-2.21l0,0a14.2,14.2,0,0,1,3.286-1.3,13.9,13.9,0,0,1,3.447-.429,9.442,9.442,0,0,1,10.053,10.138,15.383,15.383,0,0,1-1.122,5.95,13.865,13.865,0,0,1-3.373,4.818,15.917,15.917,0,0,1-4.7,3.118,13.515,13.515,0,0,1-5.3,1.065,10,10,0,0,1-7.316-2.768Zm5.515-10.923a21.023,21.023,0,0,0-.6,5.157q0,5.19,2.4,5.191a3.528,3.528,0,0,0,2.168-.813,10.1,10.1,0,0,0,2.374-2.891,16.554,16.554,0,0,0,1.748-4.353,21.308,21.308,0,0,0,.59-5.157c0-3.458-.806-5.189-2.446-5.189a3.437,3.437,0,0,0-2.119.808,9.827,9.827,0,0,0-2.312,2.849l-.026.047A16.206,16.206,0,0,0,488.786,700.38Z" transform="translate(-403.277 -676.555)" fill="#c3001b" fill-rule="evenodd"/>
  <path id="Caminho_15" data-name="Caminho 15" d="M516.713,691.373,498.1,721.857a1.4,1.4,0,0,1-1.241.757h-.76v-.006a1.389,1.389,0,0,1-1.184-2.121l4.841-7.859-5.52-21.508a1.4,1.4,0,0,1,1.315-1.871h4.518a1.4,1.4,0,0,1,1.353,1.054l3.53,13.841,8.553-14.1a1.4,1.4,0,0,1,1.258-.791h.76v0a1.377,1.377,0,0,1,.726.2A1.392,1.392,0,0,1,516.713,691.373Z" transform="translate(-391.171 -676.316)" fill="#c3001b" fill-rule="evenodd"/>
  <path id="Caminho_16" data-name="Caminho 16" d="M467.008,695.549a3.956,3.956,0,0,1-1.016-2.749,4.734,4.734,0,0,1,1.322-3.269c.026-.03.053-.06.081-.089a4.776,4.776,0,0,1,3.364-1.41,3.557,3.557,0,0,1,2.677,1.112,3.918,3.918,0,0,1,1,2.728,4.841,4.841,0,0,1-1.383,3.375,4.684,4.684,0,0,1-3.343,1.436A3.6,3.6,0,0,1,467.008,695.549Z" transform="translate(-416.285 -677.401)" fill="#c3001b" fill-rule="evenodd"/>
</svg>
