<svg xmlns="http://www.w3.org/2000/svg" width="80" height="70.621" viewBox="0 0 80 70.621">
  <g id="Grupo_284" data-name="Grupo 284" transform="translate(0 0)">
    <path id="Caminho_182" data-name="Caminho 182" d="M529.125,689.25h12a4.152,4.152,0,0,1,.651.056,3.783,3.783,0,0,1,3.073,4.374l-.625,3.575c-3.646,21.039-7.129,41.166-29.33,52.352a38.157,38.157,0,0,1-6.581,2.591,33.635,33.635,0,0,1-40.255-17.644,42.4,42.4,0,0,1-2.832-7.257,6.062,6.062,0,0,1,.66-5.368,4.409,4.409,0,0,1,2.638-1.715,4.486,4.486,0,0,1,2.935.332,5.982,5.982,0,0,1,3.124,4.415,19.184,19.184,0,0,0,3.549,7.882,22.435,22.435,0,0,0,9.249,7.2,19.916,19.916,0,0,0,20.194-2.473C518.841,729.146,521,716.6,523.2,703.791c.3-1.752.6-3.509.927-5.266H511.41a3.666,3.666,0,0,1-.743-.071,3.78,3.78,0,0,1-2.965-4.446l.323-1.619a3.786,3.786,0,0,1,3.728-3.139Z" transform="translate(-464.904 -683.017)" fill="#c3001b" fill-rule="evenodd"/>
    <path id="Caminho_183" data-name="Caminho 183" d="M468.742,708.381a10.71,10.71,0,0,1-2.75-7.442,12.817,12.817,0,0,1,3.58-8.85c.072-.081.143-.163.22-.24a12.931,12.931,0,0,1,9.106-3.816,9.631,9.631,0,0,1,7.247,3.011,10.611,10.611,0,0,1,2.694,7.385,13.107,13.107,0,0,1-3.743,9.136,12.682,12.682,0,0,1-9.05,3.887A9.743,9.743,0,0,1,468.742,708.381Z" transform="translate(-460.422 -688.033)" fill="#c3001b" fill-rule="evenodd"/>
  </g>
</svg>
