<svg id="_001-united-kingdom" data-name="001-united-kingdom" xmlns="http://www.w3.org/2000/svg" width="31.852" height="20.869" viewBox="0 0 31.852 20.869">
  <path id="Caminho_93" data-name="Caminho 93" d="M29.467,88.276H2.385A2.385,2.385,0,0,0,0,90.661v16.1a2.385,2.385,0,0,0,2.385,2.385H29.467a2.385,2.385,0,0,0,2.385-2.385v-16.1A2.385,2.385,0,0,0,29.467,88.276Z" transform="translate(0 -88.276)" fill="#41479b"/>
  <path id="Caminho_94" data-name="Caminho 94" d="M31.819,90.266a2.386,2.386,0,0,0-2.352-1.991h-.621L18.672,94.941V88.275H13.18v6.666L3.006,88.275H2.385A2.386,2.386,0,0,0,.033,90.266l8.7,5.7H0v5.492H8.729l-8.7,5.7a2.386,2.386,0,0,0,2.352,1.991h.621l10.174-6.666v6.666h5.492v-6.666l10.174,6.666h.621a2.386,2.386,0,0,0,2.352-1.991l-8.7-5.7h8.729V95.963H23.123Z" transform="translate(0 -88.275)" fill="#f5f5f5"/>
  <g id="Grupo_127" data-name="Grupo 127" transform="translate(0 0)">
    <path id="Caminho_95" data-name="Caminho 95" d="M17.574,88.276h-3.3v8.787H0v3.3H14.278v8.787h3.3v-8.787H31.852v-3.3H17.574Z" transform="translate(0 -88.276)" fill="#ff4b55"/>
    <path id="Caminho_96" data-name="Caminho 96" d="M10.193,307.673,21.8,300.138H19.783L9.224,306.992A2.389,2.389,0,0,0,10.193,307.673Z" transform="translate(-8.65 -286.958)" fill="#ff4b55"/>
    <path id="Caminho_97" data-name="Caminho 97" d="M315.977,300.138H313.96l11.243,7.3a2.4,2.4,0,0,0,.764-.813Z" transform="translate(-294.428 -286.958)" fill="#ff4b55"/>
    <path id="Caminho_98" data-name="Caminho 98" d="M4.049,96.69l9.813,6.37h2.017L4.76,95.842A2.4,2.4,0,0,0,4.049,96.69Z" transform="translate(-3.797 -95.371)" fill="#ff4b55"/>
    <path id="Caminho_99" data-name="Caminho 99" d="M302.155,98.169,312.733,91.3a2.389,2.389,0,0,0-.977-.676l-11.619,7.542Z" transform="translate(-281.466 -90.481)" fill="#ff4b55"/>
  </g>
</svg>
